<svg xmlns="http://www.w3.org/2000/svg" viewBox="0 0 473.931 473.931"><circle cx="236.966" cy="236.966" r="236.966" fill="#d42428"/><path d="M404.518 69.38c92.541 92.549 92.549 242.593 0 335.142-92.541 92.541-242.593 92.545-335.142 0L404.518 69.38z" fill="#cc202d"/><path d="M469.168 284.426L351.886 167.148l-138.322 15.749-83.669 129.532 156.342 156.338c91.92-19.445 164.185-92.155 182.931-184.341z" fill="#ba202e"/><path d="M360.971 191.238c0-19.865-16.093-35.966-35.947-35.966H156.372c-19.85 0-35.94 16.105-35.94 35.966v96.444c0 19.865 16.093 35.966 35.94 35.966h168.649c19.858 0 35.947-16.105 35.947-35.966v-96.444h.003zM216.64 280.146v-90.584l68.695 45.294-68.695 45.29z" fill="#fff"/></svg>